<svg width="83" height="58" viewBox="0 0 83 58" fill="none" xmlns="http://www.w3.org/2000/svg">
<path d="M24.9051 45.5714H49.8029C56.6757 45.5714 62.2518 40.0045 62.2518 33.1429H66.4014C75.5566 33.1429 83 25.7116 83 16.5714C83 7.43125 75.5566 0 66.4014 0H15.5684C13.8437 0 12.4562 1.38527 12.4562 3.10714V33.1429C12.4562 40.0045 18.0322 45.5714 24.9051 45.5714ZM66.4014 8.28571C70.979 8.28571 74.7007 12.0013 74.7007 16.5714C74.7007 21.1415 70.979 24.8571 66.4014 24.8571H62.2518V8.28571H66.4014ZM72.587 58H6.27061C0.0980244 58 -1.63964 49.7143 1.60227 49.7143H77.2424C80.4843 49.7143 78.7726 58 72.587 58Z" fill="white"/>
</svg>
